<mxfile host="app.diagrams.net" agent="Mozilla/5.0 (X11; Linux x86_64) AppleWebKit/537.36 (KHTML, like Gecko) Chrome/129.0.0.0 Safari/537.36" version="25.0.1">
  <diagram name="Page-1" id="1JxaFitu8v1VMbO9xUtm">
    <mxGraphModel dx="1635" dy="1025" grid="0" gridSize="10" guides="1" tooltips="1" connect="1" arrows="1" fold="1" page="0" pageScale="1" pageWidth="850" pageHeight="1100" math="0" shadow="0">
      <root>
        <mxCell id="0" />
        <mxCell id="1" parent="0" />
        <mxCell id="Xk82TOwmDJpgLxtFiUfF-29" value="" style="rounded=1;whiteSpace=wrap;html=1;" vertex="1" parent="1">
          <mxGeometry x="422" y="-160" width="358" height="118" as="geometry" />
        </mxCell>
        <mxCell id="Xk82TOwmDJpgLxtFiUfF-30" value="Nsic system" style="text;html=1;align=center;verticalAlign=middle;whiteSpace=wrap;rounded=0;" vertex="1" parent="1">
          <mxGeometry x="418" y="-193" width="79" height="30" as="geometry" />
        </mxCell>
        <mxCell id="Xk82TOwmDJpgLxtFiUfF-31" value="" style="endArrow=classic;html=1;rounded=0;exitX=0;exitY=0.75;exitDx=0;exitDy=0;entryX=1;entryY=0.39;entryDx=0;entryDy=0;entryPerimeter=0;" edge="1" parent="1" source="Xk82TOwmDJpgLxtFiUfF-29" target="Xk82TOwmDJpgLxtFiUfF-33">
          <mxGeometry width="50" height="50" relative="1" as="geometry">
            <mxPoint x="301" y="-110" as="sourcePoint" />
            <mxPoint x="337" y="-21" as="targetPoint" />
          </mxGeometry>
        </mxCell>
        <mxCell id="Xk82TOwmDJpgLxtFiUfF-32" value="connector" style="text;html=1;align=center;verticalAlign=middle;whiteSpace=wrap;rounded=0;" vertex="1" parent="1">
          <mxGeometry x="318" y="-69" width="60" height="30" as="geometry" />
        </mxCell>
        <mxCell id="Xk82TOwmDJpgLxtFiUfF-34" value="" style="group" vertex="1" connectable="0" parent="1">
          <mxGeometry x="-208" y="-112" width="499" height="337" as="geometry" />
        </mxCell>
        <mxCell id="Xk82TOwmDJpgLxtFiUfF-33" value="" style="rounded=1;whiteSpace=wrap;html=1;" vertex="1" parent="Xk82TOwmDJpgLxtFiUfF-34">
          <mxGeometry width="499" height="337" as="geometry" />
        </mxCell>
        <mxCell id="Xk82TOwmDJpgLxtFiUfF-10" value="" style="shape=image;verticalLabelPosition=bottom;labelBackgroundColor=default;verticalAlign=top;aspect=fixed;imageAspect=0;image=data:image/png,iVBORw0KGgoAAAANSUhEUgAAAUMAAACcCAMAAADS8jl7AAAA9lBMVEX///80MzI2MjLnchQ1MTAzMS82MzDe3t40NDD6+voxLy3lcBTlchbnbADu7u4vLSsjIR/29vYlIyDo6OgqJyVNTEutrKzlbwAdGhfDw8NiYWAlHx/hZgCzsrJrampycXGIiId9fHyTkpI/PTvGxsbU1NT37unfey7nmGVcW1qfnp5HRUWNjYweGBi5ubilpaTu1cXerIfx3tTnqYTcgj/rv6TfoHftkVPqYgDtbAjifinkeBToh0/x6OHqx7Lbo3fcgTLitpndkVjfdCbanGfxyrPv3MvhkFbYbwDedi3llm/tsozcpoLtaBjoeSXijFYMBgAAAACapf6kAAAJ4UlEQVR4nO2a+1+bWBPGIYEgEOBAToTczIVcNDGJ166pa9bUrnW3+6r7//8z78wBYoja7qe1ptL5/iLJCREeZ848MyhJBEEQBEEQBEEQBEEQBEEQBEEQBEEQBEEQBEH8cvQP+pu+hLfOoT+zDjd9EW+bQ79YLNZJxO/gyDdNs1j0jzZ9IW+YYws0NPOzk01fyBtmYAry9dNNX8mbpe9HGhbzPhXnb+SojkFo5vN5692mr+Wtcmrl8/5vRRCx6B+srel9dyPX9NZ450MEnp6ezYrpsqJfnO6+P799Ryp+nd8wiw/032fF2cxKysrF/I9L37cowf8T7i0IddOXrn2zaJpwAI3f8aA+s4qY3sBg01f483MBqZy/hIR9V4duxd9dfPItv2jOzPeRhv7fm77Cn5+DMzA1H+CgfwWhl/d9P1+MAbuTN2+offkqC9j0rGM8Oj3LJ4CWdZASDs6ojf46H7Esz8XhiY+qQUJb1uDjn7t+3jStjxu+vDfBAO3hhTi8roO9ser+p8WRLh3cFPNmnXror+Ie/AN5ayVN3h9n558OD4QhPLLMq/PZgLq/L+MevBtYUEeKs8S+9OeJZhd/zWamGccn8TT9P3dvkgp89si+6AMLwvNmvfUjHrg4vbOWFiY/O1usf+ADhucNzcKeZX6Xr89msYB+ffD5Wl/7xHHdtCz/n41c3VtA3637kQmEEnx+snhiy1tAx5K3dl//2t4Kh2czoaBfn92dPlkzDixIc/+S5jXP4Z6b0Shhd/6Mbzmq40T2ilzNs9hW3M79/UwfrF+CYzQtKslf4FMkIhSNy8WTsfYZdkOTHtl/iSNLlBQT++KbDwfrJRmyHVzPzDzPYi7bvca00XuBjf7g1oINL3ocatWvDh995QI6FDOD4+vujsM8z2OFzver2D8u1pPHoZZ1KpXs9Lo7+J+5nENkBrs5dtQIL+x9//f1F7czlNHyP/alCSutLZ/CWv4mW/NrzeCxgqosO+wFRJT0OXR7/u1cKu2Mw0d74iVsmFdWlgbYmmFsFZYayk5of/2c/8D13W5f2na4U360NIfafZul8avrOIVCQVEcHmmo8r2X+urS3hi+txm/0reli7gan/jQ7dWzE4gtLssFmSvtdshEHPLGS31101MVhXfiV+09afH+wykqh4FYtO5e6vdsGhuF2+It3LSGgSyz8noJ+HbKW1uFQm07erEfqNLc9/364Hjev0MnXs9Ks7LNIPaMOH07jLUeu+JvJhQadsXxdJxjpQv8j1jTmplX6MOt31/uV22UpoP5245flSfp1VK3sd3oPhOZ2qSxPfmCLbc5aKjUNDxujHO5oOue44M9czYrRrOdjOyIVdTQCGMlUkFob5c5OG/GvHLjkVK9lgwLjDG1mTZDdqNZRmxJY6ihgad2x0oux4fSySx5QC80zEgy76CGMm8/WtCHcpA4bycYdVOL2k6w9JQ8aK8ovK0E3AFCSaqghirawx4HCXPjirQ4X3lIUKxf/+i7ex2GuB9CKemsva+NmCKrS+9tjKcri9Oao67Aw2W2t8DNCNX3cKsFDXGr1RxQMCeKi359PPB9/GfE4nkxK0+XtUBoKAfT1Ntdz0GjsyUnqMGD5WkHuCZvbSXLS18+hJwVImJg7/Noq7VDiPXc8o+gHy1OfOhi/JPMtMxN/oSIlUgllcOGx4xIxLGWnAERipso7oYcFiHGeFWslHDbExp6nbhcsalUxp+pOJYu5sef5y/oADZMSThrDLTK8j0tkpDLrUmvu70XqehEOoHRUxQF+urytNurDEceahif3OKYtNxQ1QAKfBlPY5Md/COx/Y3c3GsxCdQo6ILE2OgiclRvGNeKbkGIGE0jKjWhUzkpMh3xGvc/OM+AOGRT3XXhTF0WraP4rmB9u80anSCJxFgXUWcM/lCKNRGrXMSSrIjcfUjETg3fYZDptqE+hKtU4qoi51DInPe47GeNdpLOTGx5rocvvVU3E3UzZXEkom51L1OEhlByNA5JzpOs7TF8XwRpU8o+bSbyTnZGmL1CMJ7awNwCrKuqi+kqK4qX6lw6XIk+X6lBPfHi/jhOekQZvcw47eemGkciG0px68LTty2sOEinCX1bqbVKoEQuvVHLKSpLStNQaChike+8yl1smB0vymbHlexUBx3TjjWcMkz5dHdXClSQCU5ooYZeYoFEkVb2RCSmnU1G0fcimwhlpYeu21u7afR6quxKbfiYaqRjFNwRaLiPVhPMoZMsVrE74duRlFyTso8eCv/iDaUJpiurpFfR62FNwTxXw/QEooTFAzu5EJoUY5SUmxGmca2ri0LujF7pPjZKhRVwq+tIQ0xrLz3MFuYGt0GhYSGtYS9ADaGMQ6+sOMmTBFuU65oW15Za61XuYhPoy4GhK0oz2xYPB9bLhkhh1o3rjZdOzImIQ02yxxhwyUZaQtuoYGlq49RGGacjOztMRuPEprihGu2He6JJkVdjrYsu3MB0jARON25ThoMGG+IxJ4aE8TlgdCAU4cjG4qwYSiYNTncvMJYBV2FxXR6JjXE1EHuGkBfTW2yWMlsJxK6IMyXUweNgziabQAM1jB6MVsZZNTilPeYohUI8atBETwwORTRsiVUUTLjo4cRGVxKrhpyIaDc7ELhRvzz00MUkvgect6LEs10s2Jk0OPZ9QeB1SiWtw404wEosHhiyagXy2Z5UA9GjxLHX5kJEb1/TJV0byvcTLMeinRMuprackAkNo1mDrRpocLzsGZwmVxUIxAIPWMCX0+wuS8auTsDD0GNOajJmiwEFZGaghmrA1aDnYt3FqBWG0EiszZ4DGrK4ZE0wmyGzszMyjOnhjgUaLofVHEcJjaWGKxj3y/rdQBFxf0Mp5dzYLY2jbRA8JEiY+EBddHksGVzsYIzKXvamiJ2xqqqFQiIUE9OYDhe1ZVVBlYcrQ5whtnZLOBRgUCfoSbaI3aRwuKKOLIcTdkHsskH2DE4zUFURUCJzo8fz2Bmr5Wr8BECssGbKlkwcvpQQ+o8GashKUinlK3siex+6wol4brPeJmaBIWx3hqoaDguqcUFFewjRNCkHHncczgOnvf7fdHbLGXNcrI1H4MnvazXGXan7L2PsPqm9lX9rNVh+OGknwGcz99XMbYlSabozCsPRzjApmXoYd3VSb9iuVpv7lacix67sN6vV1hTVtTUActbFn1oiUfRqZc6oa1rqA5lCd92V+7KxW142G8S3ICZfLHtb/2vSDdAMvsT/E/+6TCGXC0H2qudrgoMZlW/6Kt42VUdVf42h84+jHIbhVvYfqf9QdMGmr4IgCIIgCIIgCIIgCIIgCIIgCIIgCIIgCIIgCIIgCIIgCIIgCIIgCIIgCIIgCIIgCIIgCIIgfm7+D/51ybICtE9BAAAAAElFTkSuQmCC;" vertex="1" parent="Xk82TOwmDJpgLxtFiUfF-34">
          <mxGeometry x="185" y="197.4937655860349" width="81.77922693266832" height="39.49875311720698" as="geometry" />
        </mxCell>
        <mxCell id="Xk82TOwmDJpgLxtFiUfF-11" value="" style="shape=image;verticalLabelPosition=bottom;labelBackgroundColor=default;verticalAlign=top;aspect=fixed;imageAspect=0;image=data:image/jpeg,/9j/4AAQSkZJRgABAQAAAQABAAD/2wCEAAkGBxIQEBUTEBEVFRIVFxUYFhUXFxUVGhYYFRUXFxUbGB0bHSggGBomHRUXITIhJSorLi4uFx8zODMtNygtLisBCgoKDg0OGhAQGy8iICUtLS0tLSstLS0tLS0tLS0tLS0tLS0tLS0tLS0tLS0tLS0tLS0tLS0tLS0tLS0tLS0tLf/AABEIALgBEgMBEQACEQEDEQH/xAAcAAEAAgMBAQEAAAAAAAAAAAAABQYDBAcBAgj/xABCEAABAwIDBAYFCgYBBQEAAAABAAIDBBEFITEGElFxEyJBYYGRBzJSobEUIzNCQ1NicpLRFTSCorLB0rTC4fDxk//EABkBAQADAQEAAAAAAAAAAAAAAAABAgMEBf/EACoRAQACAgEDBAEFAQADAAAAAAABAgMRIQQSMRMyQVEiFEJhcaGRUlOB/9oADAMBAAIRAxEAPwDuKAgICAgICAgICAgICAgICAgICAgICD5c8DUgcymkbYzVxjWRn6h+6t2z9I7o+3rKlh0e08iCo7ZT3R9sqhIgICAgICAgICAgICAgICAgICAgICAgICAgIPHOAFybAdpyQV/E9tKKC4Mwe4fVjG/7xkPNb06bJbxDC/U46/Ks1/pNOkFOOcjv9N/ddFei/wDKXPbrfqEDV7c10mkojHBjWj3m5966I6XHHwxnqsk/KJqMaqZPXqJT/W4e4Gy1jFSPEMZy2nzLTe8u9Yk8ySrRWI8QrNpljLBwCsh6AOxRKdtqmxKaP6OaRvJ7h7rqk46z5iFovaPEp2g27rYvWkEo4SNHxbY/FY26THP8Nq9Vkj+Vqwn0kQvsKiN0R9oddv7jyXLk6O8e3l006us+7hcaOsjmaHxPa9p7WkELktWazqXXFot4bChIgICAgICAgICAgICAgICAgICAgIPiWQNBc4gNGZJNgB3p58ImdKRj/pEjjuylb0rvbNwwcu13uHeu3F0drc24ceTq4rxXlQMVxyoqj89K5w9n1Wjk0ZLux4aU8Q4r5b2nmUetFNvEQICAgICAgICDbw3EpaZ+/BI5ju7Q8xoRzVL463jVl65JpPDpWy23jJyIqm0cpyDvqPP/AGnu0XnZulmnNeYehh6qLcW4XVcjrEBAQEBAQEBAQEBAQEBAQEBAQV/aXa2CiBB68vZG05j8x+qPf3LfF09sn9MMuetP7csx7aOorXfOvszsjbcNH/I95XpY8FMcfy87JmveeZ4RC2YiAgICAgICAgICAgICmD4X7YTbEtc2mqXXaco5Cc2nsa49o4HsXn9T037qu7p+o1PbZ0xee9AQEBAQEBAQEBAQEBAQEBBjmlaxpc4hrQLkk2AA4lIjfEImYjmXOtqtvy68VEbDQzdp/IP9lehh6T5v/wAcGbqp8U/6oDnkkkkknMk5kk8T2ruiNOKZ5fKlGxAQ8s9PRSyfRxPf+VjnfAKs3rHmVorafEJCLZetdpSy+I3f8rLOeoxx8rxgyT8Mx2PrhmaZ36o/+Sj9Tj+1p6fJ9NCswieEXkj3R+Zh+BKvXLW3hnbHNfLRWiggICAgICAgJ5HaNhMVNTRsLzd7LxuPEt0J5iy8fqMfZkmIev09+6ixLBuICAgICAgICAgICAgIIvHcdgo49+Z2Z9Vgzc49w/2clpjxWyTqrPJkrjjcuTbSbUTVzrOO5EPVjBy5u9or1MPT1x/283Lntk/pBLdzvWNJIABJOgGZPIKN6T5WTCdh6yexLBEz2pMj4NHW87Lnv1WOviduinTXt/CcOy2HUYvW1Re72Ad3+1t3+9YevmyeyGvoYqe+WA7WYfT5UlAHH23hrfebuVv0+W3usj9Rir7atKq9IVY76MRRjsDWXPm4ke5aV6OkeeVZ6u/xwiKraWsk9epk5B24PJtlpGDHHiGU57z5lHTVD3+u9zvzOcfiVrFYjxDKbTPmWKylAgICAgICAgICDonojnzqGdnzbh/cD8AvP66OYl39FPEw6MuB3iAgICAgICAgICCJ2nxkUdM6Ui7tGN4uOnh2+C0xY/UtpnlydlduXYTjOIz1QdDJJJKTctv83bg4eq1v/uq9LJixVpqXnUy5bW3XldtqNtm0rejjDX1NhvAG7IzbO57T3edlx4emm/M8Q68vURTiPLl1dWyTyGSZ5e86k/AcB3BenWlaRqHm2tNp3L2goJZ3bkMbnu4NGnM6DxS161jcymtLWniFzw30e7rekrp2xsGZa0jL8zzkPC/NcV+s3xSHVTpNc3ltP2nw+gBbQwCR+heMgeb3dZ3hkq+hlye+dLzmx4vZG1ZxfbGsqbgy9Gz2Y+qPE+sfNdWPpsdPjbmvnvf5V8rdhMiAgICAgICAgICAgICAiXQPRJH16h3ZuxjzLj/pcHXT4h3dF8ulLz3eICAgICAgICAgIKxtngb60xM3xHCwvfK8kZWAAAHG29mcgt8GWMe58y58+Ocmo+FMxfaSOnjNNhg3GaPn+vIdDY6/1eVl2Y8E3nvyOTJlikdtFYoKGWofuQsc957Bn4k9g7yuq160jmdOetbXn8eV2w/YeGnZ02JTNa0fZg2HIu1ce5q4r9Ta89uOHXTp61jeSSu27igZ0WHQNa0fXLd0cw0ZnmUr0trTvJJbqa1jWOFMxPFZ6l29PK557ATkOQ0C7KY608Q5b5LX5mWmrsxAQEAoJGhwGqnzip5HD2t3db5usFnbNSvmWlcV7eIbE+A9D/M1EMZ9hpMr/wBLMh4kKsZt+2Jn/Fpxa8zEI+o6IZR77vxO3W/2i/xWle75ZzFfhrKyogICAgICAgIOs+i+h6OjMhGcryf6W9UfA+a8rrLbya+nqdJTtpv7XFcrqEBAQEBAQEBAQYauqZExz5HBrGi5ccgAprWbTqFbWisblyTa/a99YTHFdlPewGjpO93dwavV6fpopHdPl5ubPN51HhmwPYwuZ01c/wCTwDOziGucO+/qD39yrl6qN9tOZTj6adbvxDerds4KVnQ4ZC0D7xwyJ4gauPe5Z16a157skrz1FaR241Lr6+WofvzSOe7iTpyGgHcF20x1pGquO15tO5ayuqKAQfUbC42aC4nQAEk+AUTOvKYjaw4ZsTWz2PRdG3jId3+3N3uWF+qx1+dt6dNkt8aSr9lqCk/nqzeePs48jysLu+Cx9fJk9lWvoY6e+zA/amlp8qGhYCNJJesedsz7wrehkv77K+tSnsqhMU2lqqnKWZ277Deo3yGvjdb1wY6+IZXz3t8orJasf7eICAgICAgICAg2MPo3TysiYOs9waO6+p5AXPgq3tFazaVqVm09sO90FK2GJkbPVY1rRyaLLw7W7p29qle2IhnULCAgICAgICAg+ZHhoJJsALknsA1Tn4RM65cj2ox2XEpxDTgmIHqNGW+Rq93AcL6BephxVxV7reXmZss5rdtfDylq6TDs2BtVWD632UR/CfrnvHmEmt8vniv+kTTFPHNv8QWLYxPVO3p5C7g3RreQ0HxW+PHWnFWF8lr+WitFBAQS2E7N1VVbooju+27qt8zr4XWV89KeZa0w3v4ha4diaSlAfiFUPyA7gPd7TvCy5Z6m9+McOqOnpXm8vZdtaOlbuUFKD+IjcB7/AGneNlEdLkvzklE9TSnFIVnFdraypuHzFrT9WPqD3ZnxK6adPjp8Oe3UXt5lCLdi8KAgICGmRsDi0uDTujV3Zfhfj3KJmI4TET5Y1KBAQEBAQEHR/RfgVgaqQa3bFfh9Z3ut58V53WZd/hD0Okxa/KXQ1wu4QEBAQEBAQEBBRvSfjRjibTsNnS5vt2MHZ4n3Ars6PF3W7p+HH1eTVe2HM2VDmtLWuIa71rZbwHYeI7tF6U1iZ3Lzt8aYlKBPI+4IXPcGsaXOOjWgknwCiZiI3KYrM+FrwvYGoeN+oc2nj1JcQXW5aDxPguW/V1jivMumnS2n3cN8VWE0H0bDVTD6xs4X5nqjwBWes+XzxDSJw4vHMovFdvKubKMiFnBnrfqP+rLWnR0jmeWV+qvPjhWZZHPJc9xc46lxJJ8SumIiPDCZ35fClUQEBDQg38JwaeqdaCMu4u0aObjkFnfLWkflLSmK1/amZ8Oo6H+Yf8pqB9jGbRtP43anl7ljF8mT28R9tZpjpH5cyhMSxOSoI37BrcmRsG6xg4NaNOeq3pjinhjfJNvLTurqPEBAQEBBN7J4A6unDcxE2xkdwHAfiP8A5WGfLGOv8tsGL1La+Ha4IWsaGsADWgAAaADQLyJnc7l68RqNQyKEiAgICAgICAgFBxDbOuM9dM6+TXbje4M6vxBPivY6enbjiHj57d2SZQi3YstLTPleGRMc950a0En/AOd6ra0VjcprWbTqFop9lYacB+JVDYsriFh3pDzte3gDzXNPUWtxjjf8umuCK83nTO/bOKmaWYdStjH3j83HmBmfE+CiOmted5JW/UxTjHCs4ni89Sbzyuf3E2aOTRkPJdNMdKeIc18lreZaK0UFAICAgBBYMI2NrKixEfRs9qS7fIesfJc+TqcdPnbenT3v/CfOAYdhwvWzdPKNIhl/YDfxcbLD1suXikahv6WLFH5ztE43tpLM3oqdop4NN1mTiO8i27yHmVrj6WtebcyyydRNuK8QqxXU55EQIJSrwr5PEHTndlePm4vrBvtyeyODdT3WWVcndbVfDW1O2OUWtWQgIJDBMIlrJRFEM9XOOjG8T+3as8uSMddy0x0m9tQ7TgWER0kIiiGQzc7tc7tJXj5Mk3tuXr48cUjUJFUXEBAQEBAQEBAQEH59r7mWS+u+/wDyK92ntj+nh290vqkji1me4D2WC7neJyaO835JabfH+ka+Ui7aSRjDHSsbTRnXczkd+aQ5nwss4wRM7vy0nNOtV4Qr3FxJcSSdScyeZW0REMZ58vEBAQEBBM4XstV1OccLg3239RvvzPgFjfqMdPMtqYL28QtVH6PIom79bUgAahtmN8XO/YLlt1k24pDpr0la83lndtFhdALUkQkePrNF/OR2Z8LqPRz5fdK3q4cXthXMY25q6i4a4QsPZHr4uOflZb4+kpTmeZc9+pvb+FZcSTcm5OpPaupzvEQIN3CsKmqn7kLC49p0a0cXHQKl8laRuV6UtadQnenpcOHzRbU1g+0IvFEfwe04cfhoufV83niP9b7pj8cz/kK1VVL5XufI4ue43c46krqrWKxqHPaZtO5YlKogmNndnJq19oxuxg9aQjqjl7R7gscueuNtiw2u7BgeCxUcQjhb3ucfWeeLivJyZLZJ3L1ceOtI1CSVFxAQEBAQEBAQEHhKCHdtPS9O2ATNdI87oDesAbE2JGQOVlp6N+2baZetTu7duWba4caetlFuq89I08Q/M+RuPBep0+Tuxw83qKTW8oFbsBAQEHrRc2GZ4DNBOYbshWz+rCWN9qTqD35nwCwv1NK/LanT3t8LFFsLTwDerqtreLWkMHK7sz4ALnnq724pV0R0ta83s2G7QYTRfysHSP8AaDSf75M/JV9LPkn8p0t6uDH7Y2isT9IlVJcQtZCOIG+7zdl7lrXoqR7uWVustPt4VWtrZZnb00jnni4k+XBdVaVr7Y057Xm3mWurqCgEH3FE55sxpceDQXH3KJmI8piJnwncN2clIDpKaeThG1pYD+d7gLDuaCe8LC+eI4iYhtTDPzEykq3CsUlZ0baboYBpDG6Nrf6utd55lZ1vgidzO5+5aTTNaNa1H0r1fgNTTi80D2tH1rXA8RcBb1zUtxEsLYr18wj1qzb2F4NUVRtBE549rRo5uOSzvlpT3S0pjtfxC+YD6OWNs6sfvn7tlw3xORd7lxZOtmeKO3F0kRzZe6eBsbQ1jQ1oFg0CwA7guKZmZ3LsiIiNQyKEiAgICAgICAg+XvDQSSABqTkAERtTcd9IcEN2046Z+l77rAeervAeK68fSWtzbiHLk6qtZ1XmVTq5MUxHWOXozo1o6OP323vEldNYwYvlzWnNk+Gah9H1bcOLo4iCCCXEkEG4PVBHvUW6vFrWtrV6XJva7bT7N/LaZrXloqGDqvAIBdbrAj2T7slx4c3p33Hh1ZcPqV1PlyGuopIJDHMwse3UH4jiO9etW8WjdXl2rNZ1LXVlX00C+ZsONrpz8Jj+UjTTUbM3RTTHg57Ym+Td4+9ZWrknxMQvE448wlINsXQi1NS08PeGlzvFxOfis56aJ91plr+o17YiGjW7U1s19+pfY9jbMH9tlevT46+IUtnyW+UO9xJu4kntJNz5lbRGmU8vEQICATZBL4XszV1Nujhdun67+o3zOvhdZXz46eZbUw3t4hMfwaioiPlc3yib7iIgNB/G46DnbkVh6uTJxWNQ19PHj907lvHHalw3YZqGkj7A17CQOYBF/AKnpVj3RNl/VtPiYhgfE6T6bHW8mOefgR8FbcR7caupnzkfBo6JvrYxKT+ESfuU7sk+MZ20/wDYldl5YzUtjpa2edpDjKyVpLNwDs3rEG5A8c1lmie3dqxH9NMWu7traZT9HsVRRvL+h3ySSA87zW3N7BulhyWM9TkmNbbx02OJ3pYY4w0WaAANABYBYbmfLaI14fSJEBAQEBAQEBAQEGtX0Mc7DHMwPYbXab2NsxopraazuFbVi3EsVFhFPB9FBGw8WtaD56q1r2t5lFcda+IbyouICCOxnBIKtm7OwOt6rtHN/KexXx5LUndWeTHW8as57jHo5njJNM8St9l1mP8A+J9y78fWVn38OG/R2j2yqVfh00BtNE9h/ECB4HQrrrkpbxLmtS1fMNVWUEBAQEHjjZSLrU4Jh9EyJ9U+eUysD2hgDWnIduXHiuGM2XJMxTUOycWPHETfc7a7droIP5KhijPY+Tru/f3qf09re+21fXrHsqi8T2pq6i4kncGn6rOo33a+K2pgx18Qzvmvb5aVH8m+2MvKMRj3uP8ApXt3/t0pHb+5LU9ZhbfWp6l/5pGD/EhZTGb7hrFsMftlvMxvCW6Ye8833+LlSceef3rRlw/+L5k2gw45Nwtp/rt8AojDl+bpnLi+KLB6MqIb1RUCIxtcQyNpJdZvrOsSBcXIz7lj1dvbXe/tv0tfNtaX1cTsEBAQEBAQEBAQEBAQEBAQEBAQEHy9gIsQCOBzSOPCJjflDVeydFKbvpmXPa27P8SFrXPkr4llODHPw0Hej+hP2bxykf8AutP1eX7U/S4/p8j0eUPsyf8A6OT9XkP0mNmj2DoB9iTze/8AdR+qy/af0uP6bUWyNC3SljPMF3xJVJz5J+VowY/pvwYRTs9SCJvJjR/pU9S0/K8Y6x8Nl0LSAC0EDQEA2UblaYiXwaKL7tn6W/sp7rfaO2Pp8/w+H7mP9Df2Tvt9nZX6efw6H7mP9Df2Tvt9nZX6P4bD9zH+hv7J32+ztr9PoUMQ+yZ+lv7J3W+ztj6ZGwMGjWjkAFG5TqGSyhIgICAgICAgICAgICAgICAgICAgICAgICAgICAgICAgICAgICAgICAgICAgICAgICAgICAgpmNbfMpqowdCXMY5jZJd6waXC5y3c7DvGh4LenTzau2N83bbS5NcCL9hWDYLhxQeoPA4cURsJRLRxutMFLNMwAujje8A6EtaSL27MlasbtEK2nUbamyWLuq6OOeQNa55eCG3A6r3NFrngFbLTstqEY7d1dpm6yXN5SBKCn1O1lZGHOdhUgY25LjK0Cw7T1eC3jFWf3MZyTEb0lNkdoTXwul6IxgPLQC7eDrAG4Nhxt4KmXH2Tpal++NpwOCzaF0C6BdABugFwGpQaWN1hgppZWgF0cb3AHQlrSRfuVqx3WiEWnUbQmH7QVM2GtqYoGyzuJHRtO6LCQtJFzwF1pbHWMnbM8M63ma9yw0Mr3RMdKzckc1pcy991xGYv22KymOeGkTxyz3UJeoCAgICAgICAgICDTxivbTQSTP0jaXcz2DxNh4q1a906VtOomXJKOtpX4fUtqHuNXO8y/RvI3mm8Y3gLWOfb9dd1otF4mPEOSJiaTvytOD4t8owOa568MMkbuPVZ1D+m3vWNqduaGtLbxovB9mo6nCjUTSyGRscpjJeQ2IRF1gBpbq3J71a+TtydtfCtabp3S28HxaOTBga+WVrGydGHMJD5A0hzW3GZGZafynNVvSYy/itW0Tj/JDYyGUslNLSUtTSnpGgukJAkGWVt4m/EHsWlPyiYtMSpaO2Y7YWHaxzqrFaeie9zacs33NaS3fNnmx4+oB5rLH+OObx5Xv+V4qkcR2ehoqGt6AvDXwPuwvLmgtY7Nt8wTfPkqVyTe8bXmkVrOlWwnZmKbCDUSPkMjGTOjG8d2Po3ONmt0zIJJ710XyTGXUMa03j2z1WOztwGF7ZHCR7zEZLne3A6Tt1vZgF1Hp19af+p759LbBV4PKI43UOH1UVSwtPTGRh38s975w3vrokXiZnumNExPxEupwk7oLhY2FxwNs1xf06Y8KHtZWvxGqGHUzvmwb1EgzA3Tfd8OHa4gdhXVir6dfUn/4wvab27Ib228pw/DBHS/Ni7YwRkWtNy4g+0ba95VMEepk3K2Se2nCs1ODSdCx1HQVcdS3dd8oMjDv5dYn5w3vrototG/ymNMu2Z5iJSO24kfW4c0vdE+QFjiw2LTI6Nr7d/WKri122n6Tk33Vhr7Q4W3C6ykkpHPBkfuvaXl2+N5oN7633jr22SlvUrPdBeOy0aZsUo/lGOuhdI9jHwt39xxaXNDQ7dv2AkC6VmK4e7XKbRvJooKb+H40ynp3O6GZl3Rlxda7Xm+fAsvfXMpae/D3T5TH45NQj6CQ11RUyVNJPV7ryxjY3ta2IAnKxe3OwHkVa0dlYiJiFImbTO42lsKpqmLDa6OoZIyMMkMIkcHODS12VwTpYeJKpbtm9ZqvWJikxLQebbNC3tj/qSr631Cu9Ynu2kzm4VhzmuIcOhIN+0QEg9+arhiO+yck/jD3bPA24cIKiCWUzmUB73PLi823rn9NraWKnFfv3WfCMlO3Uw6e3Rcbqh6gICAgICAgICAgidpsEFdB0LpXRtLgSWgEndzAz7L2Pgr479k7UvTujSQpKZsUbY2CzWNDQO5osFWZmZ2tEREaVGs2XbR09e+GR7hPFIeisLA9YjdsL5bxHJbRl7rV2ynH2xOkRstsgamgYflM8Ik3+liB6rrPIBsdLgDmtMmaIvPESpTFuvlaa7Y+nko20g3msYQ5jhbeDs7uOViTc35rGua0X7ms4omva0qzYfpwz5RWzyujc0tJ3AABqN0C1zldxzyVoz63qIV9HetykNo9lo6xzJN98U0fqyxmxAvex45/EquPLNYmPMLXxxadvil2WtFOyWqmmdOwxue8jqizh1Baw9YpOTmJiNEY+OZbGH7PMhoTRh7iwtkbvm2984XEnhlvKLZJm/emKar2teDZCAUIopC58YLiHGwcCXFwItkCLqZzW7++EenHb2taDZGZoDP4lVdE2wDBuNNhoN617KZyxP7YRGOY+VqIyssWik03o8ERcYq+pYXm7i0hpdzI11XR+o3GprDGMGpmYlKQbJtNPJBUVE1Q2Qg3kddzC3TcPZxVPV/KLRGl/SjWp5a0Ox8rWiMYnVCICwaNwEAaAOtcKZyxP7YRGKY+UR6Q6EzV9Awh5Y4lri29wHSRgm49U2ub9y0w37aWZ5KbvVMUWxTW1DJ56maodH9GJCLNtpfjbXszVJzz2zERrbSMUb2gsVwo1GOlpdJGOiBbLHdpa5rMiDp4K9bRXFv8Alnau8qyYFsiymndUSTSTzuFt+S2QORt32y5LO+abR2xGoa1x6ncztiqdjQJnzUtVLTOkzeGbpa43vexGWZPmkZuNWjaJxc7idN+HACKaaGSpllMwcHSPIJbvN3eqLWA7bKs3/KJiNLRTjUy1XbIRnD/kPSv3Ab79m730nSaWtrkrRmnv71fTjs7XmM7IR1NLBTule1sG7ZwDbu3WFmdxbQ3UUyzWZn7TbHExENvajZ5tfGxj5HMDHh92gEmwItnzUY8k0mU3p3JkBZrvUBAQEBAQEBAQEBAQEBAQEBAQEBAQEBAQEBAQEBAQEBAQEBAQEBAQEBAQEBAQEBAQEBAQEBAQEBAQEBAQEBAQEBAQEBAQEBAQEBAQf//Z;" vertex="1" parent="Xk82TOwmDJpgLxtFiUfF-34">
          <mxGeometry x="193" y="98.32668329177058" width="65.07209476309227" height="43.7007481296758" as="geometry" />
        </mxCell>
        <mxCell id="Xk82TOwmDJpgLxtFiUfF-14" value="" style="endArrow=none;html=1;rounded=0;entryX=0.5;entryY=1;entryDx=0;entryDy=0;exitX=0.48;exitY=0;exitDx=0;exitDy=0;exitPerimeter=0;" edge="1" parent="Xk82TOwmDJpgLxtFiUfF-34" source="Xk82TOwmDJpgLxtFiUfF-10" target="Xk82TOwmDJpgLxtFiUfF-11">
          <mxGeometry width="50" height="50" relative="1" as="geometry">
            <mxPoint x="232" y="193.29177057356608" as="sourcePoint" />
            <mxPoint x="281" y="143.7082294264339" as="targetPoint" />
          </mxGeometry>
        </mxCell>
        <mxCell id="Xk82TOwmDJpgLxtFiUfF-15" value="Run on" style="text;html=1;align=center;verticalAlign=middle;whiteSpace=wrap;rounded=0;" vertex="1" parent="Xk82TOwmDJpgLxtFiUfF-34">
          <mxGeometry x="231" y="151.27182044887778" width="60" height="25.211970074812964" as="geometry" />
        </mxCell>
        <mxCell id="Xk82TOwmDJpgLxtFiUfF-17" value="" style="endArrow=classic;html=1;rounded=0;entryX=1;entryY=0;entryDx=0;entryDy=27.5;entryPerimeter=0;exitX=0;exitY=0;exitDx=0;exitDy=0;" edge="1" parent="Xk82TOwmDJpgLxtFiUfF-34" source="Xk82TOwmDJpgLxtFiUfF-10" target="Xk82TOwmDJpgLxtFiUfF-3">
          <mxGeometry width="50" height="50" relative="1" as="geometry">
            <mxPoint x="131" y="196.65336658354116" as="sourcePoint" />
            <mxPoint x="131" y="216.8229426433915" as="targetPoint" />
          </mxGeometry>
        </mxCell>
        <mxCell id="Xk82TOwmDJpgLxtFiUfF-18" value="Consume data" style="text;html=1;align=center;verticalAlign=middle;whiteSpace=wrap;rounded=0;" vertex="1" parent="Xk82TOwmDJpgLxtFiUfF-34">
          <mxGeometry x="108" y="164.71820448877804" width="60" height="25.211970074812964" as="geometry" />
        </mxCell>
        <mxCell id="Xk82TOwmDJpgLxtFiUfF-19" value="" style="endArrow=classic;html=1;rounded=0;exitX=1;exitY=0.25;exitDx=0;exitDy=0;" edge="1" parent="Xk82TOwmDJpgLxtFiUfF-34" source="Xk82TOwmDJpgLxtFiUfF-10">
          <mxGeometry width="50" height="50" relative="1" as="geometry">
            <mxPoint x="301" y="215.14214463840398" as="sourcePoint" />
            <mxPoint x="386" y="208.41895261845386" as="targetPoint" />
          </mxGeometry>
        </mxCell>
        <mxCell id="Xk82TOwmDJpgLxtFiUfF-20" value="" style="shape=image;verticalLabelPosition=bottom;labelBackgroundColor=default;verticalAlign=top;aspect=fixed;imageAspect=0;image=data:image/png,iVBORw0KGgoAAAANSUhEUgAAARMAAAC3CAMAAAAGjUrGAAAAkFBMVEX///8jHyAkHiAAAAD8/PwfGxwbFhekpKQYEhR2dHUNBAchHh8eGhv6+vr+/f4VERI8OjsrKSqdnJ0/Pz9dXF3DwsM2MzTw8PAKAABoZmcQCQtIR0fp5+gMAAXb29uxr7DLy8uCgIEUFBSWlJVRT1Dj4eLV09S4trd7eXofICCMiotraWrBv8BLS0tgYGAwLC0WPvreAAATIUlEQVR4nO1diZaiuhYFkyASBkfAiIqKs6X//3cvIQMBocrqW9W+Vvbqe9tGhrA5OXPQMFq0aNGiRYsWLVq0aNGiRYsWLVq0aNGiRYsWLVq0aNGiRYsWTYDw2SP4v4MPfcNIFuklXUSQ/uvZ4/n/wGLzgQCDm20Wzx7M0wHpvNlOgeNiE2P6n0vi6fbdJxOEQzswddhkaLw3J94VYM5Fp9PhHzCYes8e1vMADW9MTCwYUaSY86vnvSst0LgS3FFiIjnpmPOz8a6cGF3AGKiCcgO6zx7as5AQJDlBQQziAElOkJW8pfWBRi/AgpP4ttpP9quBw7QLm0NkZbyh9aGOCcCcEzwfUvVBvVlv43BOMAbJG3JiGEMije9FbbtI0zx/Ty8lswQlXXn7VIUwtctgjd+RkwjnIoFR34dCn9K/YZ8rWjSInjy+Z2AhJIL68jo2YkaBd4wGJ4KTeFfanMZiRqXPGdZTITmZb31988IRnEyeNbAnQnCC4/Ik2c3fmJNUzp1LafNezp1dw3GvjK1QpkFP2+gbPZtzst4+bWTPgxdy9wwHW6j8E18y5fbfMjIWEmGux/L2oeEJR84MDk8d23MAmR/PvTZylaREVyJ8e6pi6/xYz/Ne2L2lMnFDIi4O+kvmtSbLMOC5AtPq3xc1kmUvC2/h7DzcvW5RaAlkrsAF1uij78ZI5E8w2Ffvend1YttFCLm2Mx9dXpQSA2Yu54RSQ+8V8anEOLGzkh8HjaQH9PS+C7IdSy68IDMLqT0quUdEtrrVgUaKCNZ3xceARtP+C04gnzpoqI4TcNElABp7x63sQwkCm5dUKj5VKUgSofL2iCkTNXeorp0A19RKHpIXRsozR/9rmByDigiQY6rv4PuJiwra9EIQtdd+w2n/ZVDteQaB0hUYB6CXlIo7vszH5d+7llXoFXSLXpETds/pNBBZWASC6V3odwGFtTGz8/gGFEfO6Rkj/n34rPtkf2PTA/X3Sf7vAlSLZlK/knDPPLtokhElVtFrqpQ8GTtjN25djaqD6hk7mclnEYDvQ8qZf4oFJ0V6+7UAGQ2ck3HNlycuFBjNGCXiz0G4Ky+d3W/ixDBG3NfFzkKKEBQ5f2aA3Oivc/LXnKJGTiJRP7WmpcFsHM7JJ5lsJlE/Pk4f/r0ukEZOFiJOBMtSdMMKIcxPoe5dLbxI4IfGxy4dTTbnWX9wzTfI83u/N3kbOUkBryBXBCKyOrmcOA1NGV2wDuzAjn9I37C2u4MLiO26AR9kzwmCYL0Gv1jC/YIT854T9AUnmEUD9k9xwkg+mmYxSNYTgfHxNziB4pSFLVabOKgpzj35yiTZyuz+sv68Xcf8Ubs0BBjjXDQlJ3buHznDLw78A7BYz18Mp9zfGEyHizIpfjLP826mvSodt/yiWlhw8iPgdRemwEqcUE/65zmhtiHqzgARHUpoHYDZUldbPryhnBPUKanLGXduMUnqT/zDnKiQi8ZjWb7l1zihUtLVwhd2TRrUhMvCCYD04jwMJj1DtR9IMTHdUcOZf5aTXcyT6Sa5rYb7/JH9Fie+kWQ1SSUExrxJiXLg72auSA1QdSa2GhMZ8JBNw6l/lpPhXFDSY85J/mB+TU4ullXOE+UfMQ6wKBYnPeCa4lvMsggM0UalLMGiQYf+LCecAIz6Hg23oLbpZzlhqzFUks2sZNAwS7X5Buyu9YQTDoJpd788mJISvJ42nf5nORHqhGipiV/hxCtRYuqUmDz/OJmBagrbcpzYVhuPzX073+XE9z+LA7hGx7o/8AecfBlp+NTzMD/FGLi4Lq1fyA1o0iYNnPh+0637EPqV/fzicx6HmnmuU6GBE5/H7XdUyAt8wgvVkxEupIS6hMiy3JK6xcocWY5umQqQcbM/dscJ9CAN3xTkMCArL66ycGCG2YqlrKhzpHZip/fZ34oTqI694wR6xZFR0RRAPyy6vY+baYbj0yRPd5QvoHPS02o7iJBwPM1Ch5QUTK5dXXDerupEimRRc9h+z4nhjUOO2ygSnNC/0us6plGMibBlx50Dc4ImJt/vg509uYX9vhzSjR19rrc70Ej64gKDXjEwuP9wAHvc9KkH4LahrBibAd+t3CYAeRwj726wyfu34GIzkFZWZOkRGLGWnROommwMrt4nqYwaTs4OQq7rovWgaEfeXnkY0xH5YOIuWQOVy7Dusz2SGCn57bATBE1+bNRfu0d2ASfz1MDSEXBLo+6n7G7yCxC98YY9oMySJtYFp8JFjVbgqJ0jWHf5I70cSyVDvP5ilUKVE89Y8YeAXVcoZmb4AtssqywETrKpDPXzVPFcaX/+lGp9e+ZJZRbPc1kzOTMNfyUc0qIC48b7PHXYqTQjGSy0k24HIloYBw3VNMzGb52l82ZEJxxbIgJwY3Lefl4sLnNCjx/yxg6MAlkYoDJcNyXBMC1x4nRKa0eaODHOXMKRFapww5tqF+jIs4B0U8/JKpCc0MhWSRrrGdZIsXrCyc9VVbQ83wgAwDHH3a0g8FFOeAtDfhNFX8vmztTnICe7yomOhhjwIKONwVZewL8SGqZVzo5NFPasOk68EAlOyNmoat+zdNRwWMnz+dtduts+kvzTOYFF32mRctBoMvOuBsuSakNYOcoJ3S8BznwudwzIfF4XA+ZiyClBcmZCYxUXC/qoIrJcLD+bdZywjCIPd6sLdejnbVHTKhfA4KeOVSMn9HIBxvnlYjlPIdvGL9Khc5yMxtfsBmxdcDgn0ZDixlVRcGD/WN5xwvg98l3UiKGxB7kaYdstgGbj8cwERRHznpOlw9uRzOBunQ5kOSzBbnyfMXowRSQ5ueZGcmCxR4BZGOnL04zXcnhgtEzYZm+xsmzTVI+2r57ASPixKT/2Li6eCErMuZqZMBog4ZzTmPaSF3G99By7Qqnfc3IKxPY4rbmhFAiZC/649qnn2aIwFzx8BNrpJkAINnK6xWRMpk4tJ3xa1fux0Nix9I/orhLwjSEfQadjDy6FeO9G6yZOphbfjq2aKjiMiBiYdf6vnFyp15jxWYLBQROyvEWKPUSSajre8E/A/CYnRmLmCqJjaolQ37uJZghmhzS32Rvz0dxzwmvAHaqDYZ2KELm1/xDWFnLiT4UbGOtDyDuk2EXiiUpV5fdiHKTX+Cgn0Ujov1K+ei+0OkKa15CTMnPrOZkJOUGjWq3ZF5y42X/nZCUePJnC6vf0ImRVPTIK8fc4+RBmEpQm+lS0g8d3BSi+RqdGTgQnbr9OTvzbj3Fy7grnMMg8XUHnk5eqXTe6s2VL8A1OyLAndgel6MUb8EPc7N5WruxaTq5STqyaQp3/c/qkcxO+gD2K9IZbOOAqIDjcGzJ5Ow9xgsM1Nznx2dfrDYuYl2Co5bzjZEFqOaFuLL/t2tUXcsXGf7c7Em5YXoaaCK+zthRyCB7nRIZL9tUruVkXvpocBzV1hVyj1PknwmerveuDdGSbKlpfo8JJnJY9Q7HuDgf3YgrlapnHOBGwS64nZNfP28Fr6wq9oI6THRByglC104i6WMrbKy2LgzL31Zgta+bEnZUfowzzwvszQaOIAR/gRMrJocxJ3vcgK5vVC9THgNFNxTurim8PCzFBN/0xUm0Mk8VukXj8zI9wgkMRZMSn0hEi/nFHdezuvsEJCqUhLot0Q+jLMXRqv+wVcXF5mRfUevrssiqfrG42ASQYnPdftlAou3OSywtLlymlA6qYfIMTMrwKZUtKa7CG3EwEtYWFhvxJkWbDQbnL9aKFqwORbaKP2BuGwGbBAsbIAviUfJ4HL/xYEatgGmyqWESKAjXFd0f68tgH/ZNEOOvrkrHvclFwZ3WDo45Ap06IZjIlh7Gz8YUvSb28TSnLSAbM5YGekYalHB4K3OWnWqXw2eQyZjvTOIkKu1OdhL4IPB722aQ/Mz9pFV3xZGnsUmPsQ7eOE1jYW/a+hv6Sm6xk2Wc9DfrNgzFbgNGt1DUw/aL3WR5FyxUM5VpMrRXdu3GGaVh+x0kkspwPxzs96chq01M+iXs3lk/cOjmB0vnN4c7d2bQ3nbmOa5YTpBiv40N0YkxVk2Jk/EnflBYDGmNbEwpxhJQFXMn9syylkKGHOYmkk2cmhpRF6vjxxszs/o0/vaCeEyoTlj5JWJ5LJaLEJvkh0PvJNTi9RzihV0L5qTB7BYJkQNpqp2yP6DSVd/g4J2qlNEvpywvIR15ZJg3FDKnnROUDO5WyqBAQd6ZaDmrXs7Cmx+bcfSmnxGNUfFwXvZMLkU/ElQSOyjV/gxPfOPG+A6wtn1Fx8TEpnz8aubiJE56MrmFD8Ns1lgNyxCLZIHaziEOEQ9Dh9q9Bz2r6hA6StxjTMRfRfMaFklqxnbgPpubp7Sk997icGF5+n3R6O6lcZSOjJryeRYYKhagREatA6zmBufarExGmWlnTeHQiFsbFLpYz3nSHZ0vVxehZG94PWc7HUk2fV40w2cn7VCbftZaGaGyhqkFJybc4oSqVV6XcYqWIfD+HaYWpod5msvhYq0daM3cgW4dfVwmmvsR8z63zdlz0n5jgyt2iaKVcGGfboFIqNS/pDll9VY/KAvEAMMguuZvibTem1tvxMCdsBLIAQ6ZScot6uAXOaX6BaLdypGpsdHKN3Sg2K5aG+ZyznXr+F5lfynM2ouIvW7eaWx2q9R1Z3qLjgJyWnYqIsAvw7Dod94mDtLF8R06gcZU6tStKUspvobDBIJtOszAOlPls5oT6aHZlrR+1x8PCyPo0+hH5alUIYrNuLnau9RPvOYGqS4/GJR4/sVYFxLnZQ+LplOo7j3KSCEuAwUKOXZuHuV2VdedcgJo5oQop2YSASFpcAsKNnurw/FDmZovNEPp90fdYl5+o4cQzFjKO5XEJawfpxaYO8QSxc/ieHytIF4YGW6NIKqdRqcvKxKIt4HaurQOW4O1OmRhPdtpVXJyE8JpD5f0F3Ti3x839sUCuZeFjLlKK1sjzRcH1zDd1eFuHcAniVSrzJ+psnBP8eU/OgfATFA2alJQjVufOv+xQ87Gk6jfPHX3CCYPWR13GAvCzVfuo5RqEpj5qbghKvRai8OesDN4MA1kLBy6tvcQmOPvcccI6J+4DnER90aEJeLcoM5zT/NHoKzuZD3PinNifcaKtabqzIqngpOJbRfxezOZ++yOiCDROooGL6SaM5Opl+r+0D5Cm4bHN2sEugB2KXI0TK99S4iTgm7SenB1AnfzA9ULelrHE80JdUmeI2PTZnpz8WPKQnNSuQeBzp7oGwcWCk3qnrbseMJhTjeWJOxBIZOXfgMsZmAcsykKWFfMVmpOA7zVSh874hrXGycHMN1n6M9lgvt9xXCiAiKpLx2L2DLkBQCum/058IPiL15l8sn5HyEl5kqi507h+R7aMaZIXiY1RaeH/onvu4yDAo96SqV9Y9L3JPaBqU6u5gHYqX11Av6qXbq4hIgH+YA1zftEwF33RINHEiR/ZXE4qZY2hIzhJ688HNcOttuWfK1kXvs2jd+Pn3YmMEn338im08/PhlYqIULOMxca8K41dQOxSnLd+6AqNnBh9MeGJenc3G7aoxuK6+tBfxAO9H3++/q55jeRKmAsrK569XEzKCoUPNl/8g2i0xUVCzumxPsp84eMwlp1YL/o+YpaA3oVsLrizXa6Eys9eZm4xmaVsTvqLqYwBsd3gxv7zWKwGIjFtgcHq7rVsMjtDw2XQ7616s+KNOWT1ki+2oJF/rHdUB86qbKJ80ZjBv7YC21WxKzJf8L0WdI7sQi16zDEPdywfVey1Ze1t5fwk95Ur5bLXADQmjnuXf3bJpFx8vcisbhngFd/04Ze67gsgJ9X2grC80kdRspLpoZdC4tbcK5MUVLEnFxJUyHPB8PV0CcPYKqaEtvyhQ723yvvZ8sSszkg/fc2fj9gDLFQncpz+KIwd8XKtarcBi7QuGYsvEY23aXzZX3q+572goPi5o8YyOfZxyCZLMjRtIThs4XDVa18Mx+HgeAyzVfr3B/uXMBEL3k2S5blW+ifJbFHeqgl4IX+Fx0tOGQ6o6vFW5omaE+uoFQ6afZdwgXXx/4vBk7l3oq+IXchFH6MXlodGJOLlUZVs0ZkXD/H6VcO7zyDXF1fSh3tRn3vL95ar30HQp44v329fbdx4DyhO9N9B8OXvILwnJ+qd/7W/l9GYfX5pyDa4eTl/KH+pKH7H31WJRJag3Bvgi3cDIPMdf38Hqt9pWhqi3YS1lgjp+fOlO/80NkKbYjuPcfNqUyreNtX8VqBXBjQWsv8DkaVYcbFUL7YA7/gTIkbRQ2qieDZMd+lwxN++Z+btJi8b1HyKbZF5dJ2YxKRIG5E3FROqUcrdUwXAj7/i618BNDJy1H+ml3/CR3J9zVrWA4Aw+ljj6vvZOnj98YtvZf0/B3vVy8fde1kwyKKH39XwkvBWwC0tMrBespT1HVBR2WXqhxCwG7A1TG8tJKKRKT2ETgxADEh4SF/yF2T+BN5islwuJ4t3zMG2+B7aGdOiRYsWLVq0aNGiRYsWLVq0aNGiRYsWLVq0aNGiRYsWLd4K/wP3by7GSBQA1QAAAABJRU5ErkJggg==;" vertex="1" parent="Xk82TOwmDJpgLxtFiUfF-34">
          <mxGeometry x="419" y="200.01496259351617" width="64.71072319201994" height="43.062044887780544" as="geometry" />
        </mxCell>
        <mxCell id="Xk82TOwmDJpgLxtFiUfF-21" value="" style="shape=image;verticalLabelPosition=bottom;labelBackgroundColor=default;verticalAlign=top;aspect=fixed;imageAspect=0;image=data:image/png,iVBORw0KGgoAAAANSUhEUgAAAMgAAADICAMAAACahl6sAAAA7VBMVEX///8jovgj8v5aPPXSI+uR+P766f3YQe5YOvVeQfXCt/vGvPzXO+365/0lo/jA+/+V0vz1+//u6/7q5v7g8v5Br/n//f/i/f+a+f7H5/1lSfYvp/h9yPvq9v5Ls/n3+/++svuEbfiVgvn08v5hvPrWz/y64v3yvvl59/6QfPh/aPfi3P3Mw/xqT/ay+//x7v6JdPidi/l5YPeqm/pQ9f7T7P6k2Pyh1/yHzPvV/f9qwPpGsfnnjPTicfL21Pv43fzcVvCypPre2P2jkvl1XPdr9v7wtPjrn/b0yvrgZfHurPfqlvbjd/PbTu/lgvTAXshBAAAGg0lEQVR4nO2b6XbaOBhA48EGkxAKYclitrBlT5sFQsmkWWgmSzt9/8cZ21iWbEuyxTlYgvnuz/Y4xzfSt0nOxgYAAAAAAAAAAAAAAAAAAAAAAAAAAACwduzuGVH2dmW/ljh7f9H4Ivu1xDleE5Hd2/UQKRtUj9UT+UL3WD0RxoKsnAgjQlZPhJ57V0/kO2tBVkyk/MryWC0RVupdNRGex0qJXHI8VkqEmbFARBIgohpcke+y306A/4fIKs3sPJHbtREpy347AXgir+siciz75UTgiRiyX04Ensil0E/6utnpdDYJtkjOK0sSQPBEhAr7TjfPo7uzLAMPjohQ9t3pZswMC9P8tuwF4YoIJK2dE6aFI3K4dA+eiEDSivE4PVueAIIjspf4h9RvuB4H50sUQHBEEsd6ffOCHR8ZM3/TW6aBB1skcaxXZnyPWRoeHJGkIVI5MTkemcxVKh4ckYTlsPKNq5Hpfl2uAIIpknBnxXiYJ8suhAimSLJGK85j+YUQwRRJNObGeRymUEA8WCJ+qDfr7IfPDnkeZiaNQohgiaAFKZeazGdjPPKz1PbVBlPEj5DR/T7r0ViPdPKuB13k1o+QklZiPMn3yORTqh8IuogfIeWp1qc3wb0uP86v09xXG3HfbtT3a1ptRHuu/XzA3VgXWylKOFBF/AiptooadW9VbmI8NlN0cKGJ4KJ+p9m0qpGnXk4586DTuHc4SXs50ET8LqvackSKd+GHXq758XHwnLoHTeTYj+5SUaMtSZxH/rmdtgZNxPA31qjmemjFYJQM4jxSGaTCRERwgLQbmkcgccV6pFsIERERPOAOLSSiTXEtGfzke6Q1SIUJi+DufR7pc6wx+tcev56bB1cpDVJhQiKvlI0V2Fz15zxvQL/YlLMeYRHcY22MLVJE66MmuNflrUf69QMRFMFHWeTGCmauM2aQ2HlXmkdQhJjT74pBEa2FlqQ+Yy5ICiejTALf1OCDE1RCiCWZoCq3w4j3VE5GmZAiOGM1p2EPO3NN0JoMqAdy5vWLHIU5hAhxZVgKb6zgmnQomcv8OZBj4IFFiADZtyge9poMvf/vXUU9LtI4qeaARXBJD2csHPCoe6ycmop5YBGceYOlMIDfqgxOzKBH2gNhBCSCe/fymL6x3DDB1YRsHWUWQoQR6XknbA87TPzDoS0866rg4YkQrcmQ50GESXuGPWQMUmGMkAcz0BEN9NIo4M3rc1mNIokRTFhlSiUMbS6/oz93N5fs+oEwgpUwZmO5m8vvg53MZeY7Ut47ghFYkGY/1kOz/EMVd0kkDYQRjMCVDrU1CeMPWe2ZmdrNWixGgtYkzBRtrrPr1G7WYjGI3j3JxnLAJ3YDiQNICOM4puflbi6FuMQlJOHGcjeXeh8J4jcqJ9xYDtZYfk/ChNMrUjbXOP4HSiK2NwlCuWtQhMSR7sG6WpRN9V7MQ6spuiQlQQ9Vl6Qd2/VGYNz2SkaghiAs5pcEMpkIe9gjloK1pCmWe+fcqxfu5ZL4ziLO69RBOPfOach+7wgJBlwa6uUt8SLiol5NZJ+RcrFUG0viz4AYIqpVEpFJJCCiWtpaWGRtVmRtRFQL9gVa37nIPP32jrKSBXwWaRlt7ucHddmPv1VpH8eCY66HV9mzT4V/JAsgFphGHLxeazun//soVwDRbC2yJEXvSOhHQdcf1DiTbwudaSFQ0jrSbd7kGiAWGqzQjc+bI1J4l2uAWKT/nXjP/nFE9Cc1cvBo8cOH3ocroquRgzlfO7BAY5WdtFwUycFD4byFDujedY8PJTKX4Bk20Wh9IhH9U6oBQrS6ow8H6g++SO6HXIU5SS8QPfzbt8ecL6J/KHHFux/5jJHn4V/0vOkEv5TIXAI3JNYQvXH2iRQpHEk18CgnTsHFkv+b/9QDPG3LNEAkvmdv+CdzwQWx+a1EH1xNZFJs+H9jWf+lh/lQolWpJhh6Leyx8V6IiCjSqjS5HwI61O7wie9jeGMp1Kq0xy2eSrFPHAFlHygeujLjYnXI7lZqd8SfINf/UD3sgFdic9kM+4wvsVtj8iLhiBIgLmq0Kg7N4bQWcila/ckw8BfhRzmGhz3BK9GquLSrw8m0ZXnc9xvjUfBWp/7JWg8HNVoVRLlZHe3bjKrN8NVU/Z0VH3NUmeDjyL7xlsNBjVYljsffuQJJjsKbUpuLQW87QJaK7JcEAAAAAAAAAAAAAAAAAAAAAAAAAABQkv8AiEyc/xdfNOcAAAAASUVORK5CYII=;" vertex="1" parent="Xk82TOwmDJpgLxtFiUfF-34">
          <mxGeometry x="419" y="115.13466334164588" width="47.06234413965087" height="47.06234413965087" as="geometry" />
        </mxCell>
        <mxCell id="Xk82TOwmDJpgLxtFiUfF-22" value="push data" style="text;html=1;align=center;verticalAlign=middle;whiteSpace=wrap;rounded=0;" vertex="1" parent="Xk82TOwmDJpgLxtFiUfF-34">
          <mxGeometry x="293" y="211.7805486284289" width="60" height="25.211970074812964" as="geometry" />
        </mxCell>
        <mxCell id="Xk82TOwmDJpgLxtFiUfF-23" value="Kafdrop (UI)" style="text;html=1;align=center;verticalAlign=middle;whiteSpace=wrap;rounded=0;" vertex="1" parent="Xk82TOwmDJpgLxtFiUfF-34">
          <mxGeometry x="417" y="80.67830423940148" width="60" height="25.211970074812964" as="geometry" />
        </mxCell>
        <mxCell id="Xk82TOwmDJpgLxtFiUfF-25" value="" style="group" vertex="1" connectable="0" parent="Xk82TOwmDJpgLxtFiUfF-34">
          <mxGeometry x="33" y="83.61970074812967" width="62" height="187.4089775561097" as="geometry" />
        </mxCell>
        <mxCell id="Xk82TOwmDJpgLxtFiUfF-2" value="Data lake" style="text;html=1;align=center;verticalAlign=middle;whiteSpace=wrap;rounded=0;movable=1;resizable=1;rotatable=1;deletable=1;editable=1;locked=0;connectable=1;container=0;" vertex="1" parent="Xk82TOwmDJpgLxtFiUfF-25">
          <mxGeometry y="162.19700748129674" width="60" height="25.211970074812964" as="geometry" />
        </mxCell>
        <mxCell id="Xk82TOwmDJpgLxtFiUfF-3" value="" style="shape=cylinder3;whiteSpace=wrap;html=1;boundedLbl=1;backgroundOutline=1;size=15;movable=1;resizable=1;rotatable=1;deletable=1;editable=1;locked=0;connectable=1;container=0;" vertex="1" parent="Xk82TOwmDJpgLxtFiUfF-25">
          <mxGeometry y="89.08229426433914" width="60" height="67.23192019950123" as="geometry" />
        </mxCell>
        <mxCell id="Xk82TOwmDJpgLxtFiUfF-1" value="" style="shape=image;verticalLabelPosition=bottom;labelBackgroundColor=default;verticalAlign=top;aspect=fixed;imageAspect=0;image=https://miro.medium.com/v2/resize:fit:820/1*M8h_Y8qYbfMczSb0H5TNPg.png;movable=1;resizable=1;rotatable=1;deletable=1;editable=1;locked=0;connectable=1;container=0;" vertex="1" parent="Xk82TOwmDJpgLxtFiUfF-25">
          <mxGeometry x="10.699999999999989" y="114.2942643391521" width="32.43099750623441" height="40.339152119700735" as="geometry" />
        </mxCell>
        <mxCell id="Xk82TOwmDJpgLxtFiUfF-4" value="" style="shape=image;verticalLabelPosition=bottom;labelBackgroundColor=default;verticalAlign=top;aspect=fixed;imageAspect=0;image=data:image/jpeg,/9j/4AAQSkZJRgABAQAAAQABAAD/2wCEAAkGBw0PDxANDw0PDRAPDQ4NDg8ODRAPDg8NFREWFhURFRUYHSggGBolGxUVITEhJSkrLi4uFx8zODMtNyg5OisBCgoKDg0OGhAQGisiHR0uKy0tLSstLS0tLSstLS0tLS0tLS0tLS0tLS0tLS0tLS0tLS0tLS0tKzc3Ky03LS0rLf/AABEIANwA3AMBEQACEQEDEQH/xAAbAAACAgMBAAAAAAAAAAAAAAABAgUGAAMEB//EAEUQAAEDAgEGCQsACQMFAAAAAAEAAgMEEQUGEiExUXEHEyIyNUFSdLEUF1NUYYGRkpOh0RUWIyQlNEJywTNigkRjc4Oy/8QAGgEAAgMBAQAAAAAAAAAAAAAAAAECAwQFBv/EAC4RAAICAAQDCAIDAQEBAAAAAAABAgMEERMxBRIzFCFBUVJhcYEVMiI0QiMkkf/aAAwDAQACEQMRAD8A9wQAHvDQSSABpJKEswK1iuXeG05IM3GEaxFyrHYtdeCtn4ZGaeKrj4kV51MN7E/yD8q78Zd7FXb6/cPnUw3sT/IPyj8Zd7B2+v3M86mG9if5B+UfjLvYO31+5nnUw3sT/IPyj8Zd7B2+v3M86mG9if5B+UfjLvYO31+5nnUw3sT/ACD8o/GXewdvr9zPOphvYn+QflH4y72Dt9fuZ51MN7E/yD8o/GXewdvr9zPOphvYn+QflH4y72Dt9fuZ51MN7E/yD8o/GXewdvr9zPOphvYn+QflH4y72Dt9fuZ51MN7E/yD8o/GXewdvr9zPOphvYn+QflH4y72Dt9fuZ51MN7E/wAg/KPxl3sHb6/czzqYb2J/kH5R+Mu9g7fX7medTDexP8g/KPxl3sHb6/czzqYb2J/kH5R+Mu9g7fX7medTDexP8g/KPxl3sHb6/czzqYb2J/kH5R+Mu9g7fX7medTDexP8g/KPxl3sHb6/czzqYb2J/kH5R+Mu9g7fX7myDhPwx5zf2rPa5gt4pS4bcvIax1bLThmL01SM6CZkmgEhrrkb1jsqnB/yWRqhZGf6s7lWTMQAr3hoLiQABcknQAmlmB47lllZUV8/kVHnBgcW3adLzt3LuYXCxqjzz3ORicTKyXLAk8C4M4Q0PrHmRztJY02sd6ru4g9oEqsH4zLFHkXhjRYQfF11leKufiaFhq14DfqhhvoB8Udpt8w0K/IU5I4b6AfFPtNvmLQr8hTkjhvoB8U+0W+YtCvyB+qWG+g+6faLfMWhX5CnJLDfQ/dHaLfMNCvyFOSWG+h+6faLfMWjX5CnJPDfQ/dPtFvmLRr8gHJPDvQ/dPXt8w0a/IU5KYd6H7p69vmLRr8hTkph3ofunr2+YtKsU5K4d6H7p69vmLSrFOS2Heh+6etZ5hpVi/qth3ovujWs8yOlAU5L4d6L7p61nmGnAU5MYd6L7p6tnmLTgKcmMO9F91LVsFpwEOTOHei+6NWwXJAU5NYd6P7qWpYLkgKcmsP9H909SwXJAU5N4f6P7p89guSBoqckqF45LS09RDv8KSumtxacXsVqroKzC5BPBK4tBvcXA3EK3+FyykiCcqnmj1vIrKdmIQZ3NlZokbfr2rg4rDOmWXgdnD3q2OfiWJZTQVfhJxI0+HyFugy/sb7wtmBr57V7d5mxc+Wt+5VuCfBmiN1a8Xc85rCeq2tbuIXPPkRiwdS/ZnoTnLmpG9sQlSIikpiEJTEKSmIUlMQpKYhCUxCkqQhCUxCEpiFJUhCEpiEJUiIhKYhCVLIiISmIRxUkhCEpkRCVIQhKkRNbinkITPI0gqWWYs8h5M2djo3AEEEEFQ5eR5olnzrIrGQ1S6ixUQXNnuMRHVp1FRxsFZTn5FuEm4WZeZ7ivOnbKHwxdHt7wzwK6PDOt9GHH9P7Ojg7FsNi/ucjGd9zFhekiwlUFwpKYhCUxCkpgKSmREJTEKSmIUlSEISmIQlMQpKkIQlMiISpCEJTEISpZERCUxCOcpJCNZKZEUlSEI4qRE1uKaEa3FSRE0verEiDY9GeUo2bEq9ytt6bh7zH4qu3+vL4LKusvk91Xmj0BROGLo9veGeBXR4Z1vow4/p/Z0cH5/hsW9yeL6zFhukieJVBaKSmIQlMQpKYhCVIQpKBCkqQhCUxCEqREUlMQhKYhCVIQhKYhCVIiISmIRzlJIQhKZEQlSQjWSpEWI4poiayVLITZpkf1KaRBs1KZE30fOULNide5XG9Nw95j8VXb/Xl8FtXWXye6LzJ6AovDF0e3vDPAro8M630Ycf0/s3ZAH+HRb3J4vrMjhukidJVJaKSmIUlMQhKYhSVIQuk6kxbm5lFKf6bb1B2xRNVSZs/RT+0FDtEfIl2eXmK7CZO0CmsTHyE8PI55MPmH9N9ytV0H4lbpmvA45GuGgghXJp7FTTW5qJUiAhKkIDWOcbAEobS3BJvY6mYVUO/ozd6qeIrXiWLDzfgbxk9Kf62j3FQ7bDyJ9jn5iuycm7bfgULHQ8geDn5nHUYLUN1Mztyvhiq34lMsNYvAi5WuabEEH2rVFp96M0k1uanFSSIml71NIg2alMiAlAG6j5yhZsSr3K6zpuHvMfiq7f68vguq6y+T3VeZPQFF4Yuj294Z4FdHhnW+jDj+n9m3IHo6Le5SxfWZDDdJE4SqS0UlMQhKYhSVIRtpqZ0h2DrKhOaiiUIOTJaCmYzUPeskpuW5qjBR2NygTMQAEAFAGuSJrhYtB9ykpNbCcU9yq4kxrJC1osF1aW5RzZy7UlLJGmkAdIwEXBdpCnY2otojBZySZcIoWNAAaB7lx5SbfedVRS2HUSRiACgDEAcddh8Uzc1zRfqNtIKuqvnW80yqymNiyaKHjFE+nkLDqOlp2hd7D2q2PMjiX1uqWTI4rSZwEoEBMDdRnlKFmxOvcrzOm4O8x+Kqt6Evguq6y+T3VeZPQFE4Yuj294Z4FdHhnW+jDj+n9mzILo6Le5TxXWZDD9JE4SqSwQlMQpKkIDBnEAdaG8lmJLN5E9BGGtACwSlzPM3RjksjYokjVUVDIxdxspxg5bEZTUdyOfjTRqYT71oWFfmZ3iV5CjHB1xke9Psj8xdqXkdcGJQv0Z1jsKpnROJbG+EjsBB0g3VJcVLGD+2cuvh/wBEcu/92aKA/tWf3Ky1fwZXV+6Lk6RrRckDR1ripNvuOu2luRlTj8DNAJeR1BaoYOyW/cZp4uEdjiOVI9CfmCv/AB79RT25eR0UeUcLzmuBjJ0C+nSq7MDOKzXeWQxkJPJ9xNA3061hNgUAVzLWnBhEnWw2+K6XDZ5Wcvmc/iEM4c3kUgldw4wLoAUpgb6LnKFmxKvcr8fTcHeY/FU29CXwX1dZfJ7qvMnoCi8MXR7e8M8CujwzrfRhx/T+xsg+jot7lZiusyvD9JE0SqSwUlSEISmI34eLyBQt/UnV+xOrAbTEAQGNF3GadVtC6GGy5TDiM+YjSVpM4hKZEQlSEdVFikkRGnObsOz2KmzDxmvctrvlD4ObEKkSPLwCAdqtqhyRyZXbNSlmjnilLHB41tNxfUrJR5lkytS5XmPW4hLKbudo7I1BKumMNiVl0p7nGSrik1ucpJETW5ykkJs9AwNzjBGXdkWvssvP4lJWPI7mHbdazO5Zy8r+WkwFPmdbnAj3LocNi3bn5GDiEkq8vMoi7xxQFMAJiN9EeUq7Nide5X4+moO8x+Kpt6Evgvp6q+T3ZeZPQFF4Yuj294Z4FdHhnW+jDj+n9mZCn+HRb3KzFdZlWH6aJolVlghKYhSUyJtoX2kbvUbVnFk63lJFgXON4UAaaimZILOF1OE3HYjKCluRk2CdbX+46lqji/NGaWF8mR8+FTt02Dt2kq+OIgyiWHmjgljc3nNLd4stEWnsUNNbmkuU8iAhKkIRxTSIiEqQhqWB0rxGy2c69r6kpzUI8zHCDnLlRIfq1Vf7PmWft9XuX9itOqiyVOcHTO0A80aQVVZxFZZQRbXgO/ObLRGwNAa0WAAAHsXKbbebOkkkskCaVrGlziGgaySnGLk8kEpKKzZ57lHivlEug8hmhv8AlehweH0od+7ODir9WfdsiIuthkASmAqBG+i5yhZsWV7kDF01B3mPxVF3Ql8F9PVXye7FeZPQFF4Yuj294Z4FdHhnW+jDj+n9gyG6Oi3uVuJ6rKqOmTBKrJiEpiFJUiIucnkIn8PqxI0C/KGghc+2pwfsb6rFJHYqS0xAGIAxAGqWBjxZzQd4UozlHZkZRUtyBxPA7Avi020lvWt9OLz7pmK7C5d8SvPPUuijAxCVIia3FSSI5nbk6/8Ae4h/d4KjFr/hIuwr/wCyL8uAdwxACyA2NjY20FNZZ94nnl3FSx/C69+njONaBpa3ki25dbC4jDx7ssmcvE0Xy788ypPaQSCCCNYK7CaazRy2su5ipiFKBAJTA30XOVdmxOvcgoumoO8x+Kou6Evg0U9VfJ7svMnoCicMXR7e8M8CujwzrfRhx/T+xchz/D4t7ldieqymjpkuSqyYpKkRzEJTEISmIxkrmm7TY+xNxTWTBSa2JOmxu2iRvvCyzwnpNMMV6iRixCF1rPFz1dazSpmvAvV0H4nUHA9aryLcwpAYgDEAU/KWkEcgeBYP8V2MFZzxyfgcrF18ss14kG94C3JGJs53yEq1RK3Iehq3QSNmaAS29gdWkKNtasg4PxJV2OuSkvAmf1wqfRx/dYvxlXmzX+Rs8kb6XLF1/wBrGLf7NarnwxZfwZOHEXn/ACRaqOqZMwSMNwfsdi5Vlcq5csjp12KceZG5QJlWyxwhpb5QwWc3nAdY2rq8PxLT05bHMx+HTXOikruHHASgAFMRvoucq7Nide5Bw9NQd5j8Vnu6Evg009VfJ7svMnoCi8MXR7e8M8CujwzrfRhx/T+zVkQf4fFvcr8R1WUUdMlyVAkISmIQlMQACdQJ3J5pbi73sa3FSImslSEKSnkLMLKqRpu15HvQ64y3QKclsyTw/HXhwbLygTbO6wst2EjlnE01Yp55SLK03F1zDomIAruWf+k07CV0eHfuzBj/ANEUslds44t0xGIAUpiBdMC5ZDSOzHt6gbjeuLxOK5kzr8Ob5Wi1LlHSObEmgwyA6eQ7wVlLysXyV2rODPJ3da9ajzDAmIBKAN1FzlC3YnXuQkHTUHeY/FZ7uhL4NFPVXye7rzB6EovDF0e3vDPAro8M630Ycf0/s0ZFH+Hx73LRiOqzPT0yWJUCQhKYhCVIid2Cn9r7lRif0L8P+5IV2EMfdzeS77LPViXHuexfZh1LvRBVVDLHzmG20aVvhbCezMU6px3RxPuNejerkUs1lylkRzNtHTvle1rWk6Qb20W3qNk4wi2ydcHOWSL1CzNaG7BZcGTzeZ2orJZDpDKplvOLRxjXck7l1uGQebkcziM1kokVk7hkdSXtffQ27SDqK1YzESpScTLhaI2tphxHJuoiJLRxjRpuNFvcinHVz37mO3BWQ270Qr2OHOaRvBC2pp7MxtNbmslSEPDA95DWNLiTYWCjKcYrOTHGMpPJI9Eycw008Ia7nO5TvYT1LzuMv1bM1sd/C0aUMnuSyyGk4cZnEcEjj2CPeQr8NBzsSRTfJRrbPKybr1Z5kUlAgEpgb6E8pQt2J17kLB01B3mPxWa7oS+DTT1V8nu9l5g9CUXhi6Pb3hngV0eGdb6MOP6f2cOSFS1tBGDfWVrurcrWZK5pVkia9mwo0WGqhTXM9qekyOqhDWs9qlpMWqiSyfqGumsNizYuDUDRhZpzLWuSdQBCAOeShhdpdG0+5WK6a2ZW6oPdGv8ARVN6JvwUu0WeZHQr8johgYwWa0NHsVcpuTzbLIxUe5G1RJGirqWRML3mwA+PsU665TlyxITmoLNnnOK1xnldIdV7NH+3qXpKKVVBRPP3WuyXMTWQ/wDqSf2/5WLif6o2cO/ZlyXFOuaKiihk58bXbwrIWzh+rK5VQlujm/QdH6BnwVva7vUyHZavSdNNRQx8yNrdwVU7Zz/ZlkK4w/VHQqyYEAUvLXFg792Yb20vPt6l2+G4Zr/pL6ORxDEJ/wAEVAldg5ICgBSmB0UJ5art/UnXuQ0HTUHeY/FZruhL4NNPVXye7rzB6EovDF0e3vDPAro8M630Ycf0/shcmv5FnvXRl1DnL9DpVhWKmACmI6cOrnQPEjRf2bVVdUrI8rLKrXXLmRZ6TKeF2h4LD7NIXLswE1+vedKvHQf7dxLx10LtUjT/AMhdZHVNbo1K2D2ZvBB1aVXkWBQBqkqI2857W7yApKEnsiLnFbsisQyjp4rgHPd1AavitdOBsnv3IzW4yuG3eyn4ri0tS67jZo1NGoLsUYaFK7tzk3YiVr79iPJWgoJXJ7FhTPJc24cLE9YWXF4d3RyXgacLeqpZsuNHj1LLqkDf7+SuNZg7Ybo60MVXPZnfHURu5r2u3EFZ3CS3RepxezNiiSMJA16EAclRidPGCXSt0dWcL/BXQw9k3kkVSvriu9lVxvK0uBjp9AOt517rLq4bhuT5rP8A4czEcQzWVZUnvJJJNydJJXXSSWSOW3n3sQlMQEwAUxG+h5yrt2J17kRT9Mwd5j8Vlu6Evg1U9VfJ7wvMHoSicMXR7e8M8CujwzrfRhx/T+yEya/kWe9dKXUOcv0OhWFYExAugQCUwAmIDXEajbchrPcM8tjaK6capnjc4qGlW/8AKJ6s14sw4hUenk+co0a/Sg1rPUzTJO93Oe5283VihFbIg5ye7NSkRASgQqYAJTABTEOypkbzZHN3Gyi4Re6JKclszZ+kqn08vzlR0KvSh61nqYrsQqDrnkP/ADKaprX+UJ3WP/TOZ7idJN96tSy2K289xSUxC3QAEwAmICBG+hPLVdv6lle5EU/TMHeY/FZb+hL4NVHVXye8rzB6EonDF0e3vDPAro8M630Ycf0/sg8m/wCRZ710pdQ5q/Q6FaVgKBAJTAUpiASmACUAKUxAJQICYAJTEKgAXTEC6YCoABKYgXQICYAJTEKSmACgAJiASgQqYHRQ89V2/qTr3Imm6Zg7zH4rJf0JfBro6q+T3heYPQlF4Yuj294Z4FdHhnW+jDj+n9kFk4f3FnvXTl1Dmr9DourSoVAATEKXJ5ADOCeQswIABKYgIABKYhUABMQCUwASgQpTACYgIAUlMQCmAEABMQCgQpTABKYjooOeq7f1LK9yKpumYO8x+Kx39CXwa6Oqvk95XmD0JROGLo9veGeBXR4Z1vow4/p/ZA5OfyTPeunLqHNX6G9WlQCmIxusbwh7Aty+09JStgbI+KMAMBcSwLgTstdjjFs7sa61BNpC0v6PnuyNkbjbTZgBTn2irvk2Rh2ezuikVfKbDW08gzOa/UNhXUwV7tj/AC3RzcXQq5d2zIjMdrzXW25pstma8zLk/IXNOuxttsbJ5oWTFAJ1AncLpiMcxw1tcN7SEJrzDJ+QgudQJ3C6kIxzXDW0jeCEJp7A00ANcdTXHc0lGaXiGTE06rG+y2lMQXMcNbXDe0hCaezE00IGk6gTuBKeaW4ZNgcxw1tcN7SE00/EGmKmIPFv7DvlKOZeYZPyEKZEzi3a8x1tuabIzXmPJ+QuabXzTbbY2+KeaFkxExHRQc9Qt/UnXuRdL0zB3mPxWK/oS+DZR1V8nvK8wehKLwxdHt7wzwK6PDOt9GHH9P7IDJ3+SZ711H1Dm/4N91aUgumBjNY3hJ7Atz0WKASUzYybB0YBIXnJTcLXJeDO/GKlVys58JwOKmcXteXEgjTZW34udyyaIUYWNTzTKzlbx5lvI2zdTCNRXTwGnyZRff4nOx3Pz/y2LRhbWeRx5wFuKFzYaly729d5eZ0qUtFZ+RBVON0YifTxROBcC0HNFs5boYS5zVk3sYp4mnkcIIksKw2ClgE0gBdmhxcdenqWa++y+zkjsaKaYU180h6HF6SsJhzDq1PaBfco24a7DrnzHXiKr3y5EDiFEKOsjc3mPcLDYL6V0KrXiKJJ7oxW16Fya2ZJ5bQB9O2RoFmm+gbVl4bPltcX4mniEM61JeB2ZL0rY6Zl7Xk5WnaVTjbHK55eBbg61GpZ+JX4MOtiZjtoaeM9m1dCV/8A5Ob6MEaf/Vy/Z2Zayhz4acWBLgXaOoqnhsWoysZdxCSbjBExHSwUUQcyF0lgM7MaC4+1Y3ZZiJ5OWRrVcKIZpZkXWY9RTxyRujdG7Mdm8Y0DlW0LVXg76pKSeaz8DNZiqbItNZfJH5HYJHIw1MozgL5rT7OtaOI4uUZacCjAYaMo6kjpiyqBqBAIGiIuzAbcqyrlw9qrncv5FixydnJy9xy5cYRHG0VEbc0HnAarnUreGYmUnpyKuI4eMVzxLNQsj8hizwM3iGZ2gXtZcu1y7RLl3zOjWo6Cz8ir4hlDQ+TyU0MT2kggHNFr711KsFiNVWTkjnW4ujTdcEU9dk5J0UHPVdv6lle5GUvTMHeY/FY7+jL4NlHVj8nvK8uehKLwxdHt7wzwK6PDOt9GHH9P7IDJ3+SZ711H+5zP8G1XFQLoEYzWN4Q9gW56DNneR8m9+KFra15+OWv3+Z3pZ6Hd5FYwGOs49ptIG53Kz72zb6da6eKlTpPb6ObhlbqLcmsti3yfTzr8n/KxcNz1e7Y2cQy0zqof5Bn/AIVVb/ZfyWV/118HnzHASA9Qff7r0LWccvY4SeUj0HFIjNRFrNJLGkWXnqJKvEZyO7dFzoyiVrJPD5hUZzo3MDRpLgQunj7oaWSeeZz8FVPUza2OjL2YZ0bQeUATuVfCovKTZZxKSzSJqlAq6JrNoY072kXWKb0MQ2a4f9qEjjxuu8nlpoW6Ghwcd2pW4arVhOb3KsRbpzhBbEu2hbx4qRrLLH4LI7np6ZqVS1NQoWUNS6asdmnS12Y3eCu/hIKuhZ+JxMVN2Xd3gWCmx+qjAinpXvtoL2gkFc6eDqn/ACrnl7G+GLth/GcCUrKWnqaZzzFm3aXC7c1wIWWuyym1JM0TrrtqbyNGR8jTTFrbEtc5ttqs4gnrZvxIYFrSyXgR9Xjc0Uhb+jM4g85ov772WivCQnHPVKJ4mcJZaRw5SYtUT0jg+l4lmc3lF2n4K/B4auq9cs82U4u+yyl5wyRY4+jmd2b/APK50v7b+Tev6y+Dys6zvPivVHm2BMR0UHPVdv6k69yNpemYO8x+KxX9GXwbKOqvk95Xlz0RReGLo9veGeBXR4Z1vow4/p/ZX8nj+5M966r/AHOZ/g2lXFICUAAGxB2G6ARaqbK2NjGsMLjmtA1hcqfDZSk3zHThxCMYpZDuyyjtohdfquQkuFy8ZDfEo+ESuYtistS67zYDmtGoLpYfDxpWSOfffK195LQZTxspxBxTiQzMvcW3rHLASla55+JqjjoqvkyKy43JO0krqI5zJvB8pZacBjhxjB1f1fFYcRgI2vmXczZRjZVrJ96JKoy1BaeLhLXdRcQQs0OFPP8AlLuNEuJLL+KKpWVT5nmR5u4rq11xrjyxOZZY5y5pE1gGUopY+KdG54uSLELFi8A7p8yeRsw2NVMeVrMjccxQ1M3G2LQNDQTpAWnDYfRhymfEX6s+Yn25asEWZxLs7Mzc64te2tYHwp8+fN3G5cSXLlkVIVDhJxus5+fp23XX5Fycpy+d83MW2ny4aGgPhJO1pAC5E+Etv+MjqR4mku+JwYxlfJM0xxN4tpFjfnWV+H4ZGt80nmyi/iEprKPciIwnGJqV+dGbg85p1FbMRhoXRykZaMROl5xLOzLyO3Kp3E9diLLlvg8s+6R0VxWPjEhMospXVbOKDAxl76eddbsHgFQ+ZvNmPFY13LlyyR3NyvjFK2m4l9xEI864tcC11Q+GSdzs5vHMuXEI6XJl4ZFQJ8V2DlgKBG+gPLVdv6lle5H0nTMHeY/FYsR0ZfBso6q+T3peXPRFD4Yuj294Z4FdHhnW+jDj+n9lfye/kme9dV/ucz/BtVxQKmACUABMQpKYAKBAKYATEKSgAJiASgQpKYATABQICYATEAlAhSUwASmAECBdMBUxAKBHRQHlqu39Syrcj6PpmDvMfisOI6Mvg24fqx+T3teXPRFG4X4y7DxYXzZ2OO6xXQ4a8rvoxY9Z1lYyQkD6NresF111rO6eZyo98cjocLGxV67ylrIUlAgFMBSUwAgQLpgBMQpKAAmIBKYgIAUpgBMQECASmApKBAKYAJTAVAgFMQLpgAlAgEpgdmHR63nV1Ki6XgXVLxIzB7y4xCW6QKhp0bAseKfLTL4NmGWdkT3peXPQkflBhraqmlpzblsIaT1O6irabNOakV2w54uJ4fhtVLhtS+nmBDc6xB+xC9KnG2GaOBJOuWTLmOLmaHscDcXBBVabj3MbSkaXUjt6sViK9NimmfsUtSIcjF8lfsRqRFyMBpX7E9SIuRg8lfsRqRDkYDSv2J6kQ5GDyV+xPUiLTYDSv2I1Ii02KaV+xPUiHIweSv2J6kQ02A0r9iNSItOQPJX7EakQ05ANJJsT1Ii05ANJJsT1IhpyF8kk2I1Ii05ANJJsT1IhpyB5JJsT1Ii05ANJJsRqRDTkDyOTYnqxFpyB5HJsRqxDTkDyOTYnqxFpyNkdCdbjoUJXeRJVeZx41i7IWmOMguIto6lBLxZZv3InuCTJ9+e6vlabWLYw4a7/ANS4/EsR3aaOtgKf9s9WXGOoYgCs5W5HU2INLiOLmA5Mg1n2Fa8Ni5Uv2M1+Gjb8nmdVkhjNCf2QdIP+zytG5diGNpsXe8vk5k8JZDwzEa3Hx/085/8AWVPVo9SK9K7yYbY96rP9MpatHqQ9K30sy2Peqz/TKNSj1INK30sy2Peqz/TKNWj1IWlb6WDNx31Wf6ZT1aPUg0rfSzM3HfVZ/plGrR6kGjb6WZm476rP9Mo1aPUg0rfSzMzHfVZ/plGrR6kGjb6WDMx31Wf6ZRq0epBo2+lmcXjvqs/0yjVo9SDRt9LM4vHfVZ/plGtR6kGjb6WZxeO+qz/TKNaj1ING30szisd9Vn+mUa1HqQaNvpYOKxz1Wf6ZT1qfUg0bfSzOKxz1Wf6ZRrU+pC0LfSzOJxz1Wf6ZRr0+pBoW+lmcTjnqs/0yjXp9SDQt9LBxGOeqz/TKNen1INC30sziMc9Vn+mUa9PqQaFvpZnEY56pP9Mo16fUg0LfSwGnxz1Wf6ZT16fUg0LPSxP0XjkpDDBO0HRcssEPFUx7+ZAsNY94ss2TXBi/PEta8WuHCNpvf2OWDEcSW1ZtpwHjM9SghbG0MY0Na0WAHUFx223mzppJLJDpDCgDEAYgDEABAGIAwIAxAGIAxAGIAxAGIAwIAKAAgAoAxAAKAMQAUABABQBiAMQAEAYEAFAH/9k=;movable=1;resizable=1;rotatable=1;deletable=1;editable=1;locked=0;connectable=1;container=0;" vertex="1" parent="Xk82TOwmDJpgLxtFiUfF-25">
          <mxGeometry x="8" y="32.77556109725685" width="36.97755610972568" height="36.97755610972568" as="geometry" />
        </mxCell>
        <mxCell id="Xk82TOwmDJpgLxtFiUfF-5" value="" style="endArrow=classic;html=1;rounded=0;entryX=0.5;entryY=0;entryDx=0;entryDy=0;entryPerimeter=0;exitX=0.5;exitY=1;exitDx=0;exitDy=0;movable=1;resizable=1;rotatable=1;deletable=1;editable=1;locked=0;connectable=1;" edge="1" parent="Xk82TOwmDJpgLxtFiUfF-25" source="Xk82TOwmDJpgLxtFiUfF-4" target="Xk82TOwmDJpgLxtFiUfF-3">
          <mxGeometry width="50" height="50" relative="1" as="geometry">
            <mxPoint x="-52" y="85.72069825436408" as="sourcePoint" />
            <mxPoint x="5" y="84.03990024937654" as="targetPoint" />
          </mxGeometry>
        </mxCell>
        <mxCell id="Xk82TOwmDJpgLxtFiUfF-6" value="UI S3" style="text;html=1;align=center;verticalAlign=middle;whiteSpace=wrap;rounded=0;movable=1;resizable=1;rotatable=1;deletable=1;editable=1;locked=0;connectable=1;container=0;" vertex="1" parent="Xk82TOwmDJpgLxtFiUfF-25">
          <mxGeometry x="2" width="60" height="25.211970074812964" as="geometry" />
        </mxCell>
        <mxCell id="Xk82TOwmDJpgLxtFiUfF-28" value="" style="endArrow=none;html=1;rounded=0;exitX=0.351;exitY=0.078;exitDx=0;exitDy=0;exitPerimeter=0;entryX=0.5;entryY=1;entryDx=0;entryDy=0;" edge="1" parent="Xk82TOwmDJpgLxtFiUfF-34" source="Xk82TOwmDJpgLxtFiUfF-20" target="Xk82TOwmDJpgLxtFiUfF-21">
          <mxGeometry width="50" height="50" relative="1" as="geometry">
            <mxPoint x="465" y="197.4937655860349" as="sourcePoint" />
            <mxPoint x="515" y="155.47381546134662" as="targetPoint" />
          </mxGeometry>
        </mxCell>
      </root>
    </mxGraphModel>
  </diagram>
</mxfile>
